<?xml version="1.0" encoding="utf-8"?>
<svg id="Panou_Spate_Stanga_x5F_Thmb" xmlns="http://www.w3.org/2000/svg" viewBox="0 0 200 200">
  <defs>
    <style>
      .cls-1 {
        fill: #efefef;
      }

      .cls-1, .cls-2 {
        stroke: #000;
        stroke-linecap: round;
        stroke-linejoin: round;
        stroke-width: .7px;
      }

      .cls-2 {
        fill: #606060;
      }
    </style>
    <style>
      .cls-1 {
        fill: #efefef;
      }

      .cls-1, .cls-2 {
        stroke: #000;
        stroke-linecap: round;
        stroke-linejoin: round;
        stroke-width: .7px;
      }

      .cls-2 {
        fill: #606060;
      }
    </style>
  </defs>
  <path class="cls-1" d="M70.94,127.6h57.96c.96,0,1.75-.79,1.75-1.75v-58.17c0-.96-.79-1.75-1.75-1.75h-57.96c-.96,0-1.75.79-1.75,1.75v58.17c0,.96.79,1.75,1.75,1.75Z"/>
  <path class="cls-1" d="M38.38,127.6h29.05c.96,0,1.75-.79,1.75-1.75v-58.17c0-.96-.79-1.75-1.75-1.75h-29.05"/>
  <path class="cls-1" d="M161.62,65.94h-29.05c-.96,0-1.75.79-1.75,1.75v58.17c0,.96.79,1.75,1.75,1.75h29.05"/>
  <rect class="cls-2" x="-77.585" y="-134.019" width="17.52" height="32.25" rx="6.6" ry="6.6" transform="matrix(-1, 0, 0, -1, 0, 0)"/>
</svg>